<?xml version="1.0" standalone="no"?>
<!DOCTYPE svg PUBLIC "-//W3C//DTD SVG 20010904//EN"
 "http://www.w3.org/TR/2001/REC-SVG-20010904/DTD/svg10.dtd">
<svg version="1.0" xmlns="http://www.w3.org/2000/svg"
 width="700.000000pt" height="700.000000pt" viewBox="0 0 700.000000 700.000000"
 preserveAspectRatio="xMidYMid meet">
<metadata>
Created by potrace 1.14, written by Peter Selinger 2001-2017
</metadata>
<g transform="translate(0.000000,700.000000) scale(0.100000,-0.100000)"
fill="#000000" stroke="none">
<path d="M4768 6565 c-2 -1 -40 -5 -85 -8 -182 -13 -387 -116 -548 -274 -192
-189 -322 -432 -387 -724 -19 -88 -23 -132 -22 -284 0 -163 3 -190 27 -284
120 -457 464 -692 864 -592 481 119 861 695 848 1280 -4 172 -14 231 -63 371
-79 230 -256 417 -452 479 -37 11 -178 39 -182 36z"/>
<path d="M2030 6552 c-52 -8 -145 -43 -206 -77 -206 -115 -357 -367 -391 -654
-14 -109 -8 -313 12 -411 39 -198 123 -409 211 -533 19 -26 34 -50 34 -53 0
-4 21 -32 47 -63 216 -258 480 -395 739 -385 98 4 156 20 259 69 194 93 333
281 402 543 22 84 26 120 27 262 0 91 -2 191 -6 223 -16 125 -70 301 -133 431
-37 77 -116 209 -135 226 -3 3 -18 22 -33 43 -122 163 -352 320 -537 366 -70
17 -223 24 -290 13z"/>
<path d="M470 4804 c-52 -10 -147 -48 -195 -79 -51 -32 -123 -102 -157 -152
-123 -180 -149 -487 -63 -747 97 -297 307 -549 561 -675 153 -76 309 -103 449
-76 184 34 348 177 418 365 84 226 51 541 -81 790 -147 275 -391 488 -637 556
-58 16 -245 27 -295 18z"/>
<path d="M6291 4800 c-381 -81 -720 -456 -807 -895 -4 -22 -8 -103 -8 -180 -1
-147 13 -227 57 -325 72 -159 216 -282 377 -320 75 -18 192 -19 265 -2 33 7
65 15 70 16 33 7 94 32 152 63 247 130 449 376 548 666 49 145 66 361 39 495
-47 227 -178 388 -375 463 -62 24 -244 34 -318 19z"/>
<path d="M3327 3924 c-283 -43 -588 -166 -872 -351 -560 -366 -1023 -944
-1360 -1698 -127 -283 -194 -479 -211 -615 -17 -138 -7 -288 24 -387 69 -216
287 -398 516 -429 77 -10 267 -4 346 11 14 3 41 7 60 10 33 5 57 10 105 20 11
2 112 27 225 55 113 28 212 53 220 55 8 2 205 51 437 109 483 121 513 126 672
128 130 1 209 -7 306 -31 471 -118 1056 -264 1075 -267 14 -3 32 -7 40 -11 8
-3 42 -12 75 -19 33 -8 69 -16 80 -19 33 -8 68 -14 105 -20 19 -3 46 -7 60
-10 87 -15 282 -21 350 -11 263 40 476 244 533 511 21 98 12 287 -20 425 -19
84 -146 422 -184 489 -5 9 -33 68 -63 133 -45 96 -160 314 -209 393 -116 189
-286 431 -372 530 -194 223 -355 378 -535 517 -86 66 -265 188 -275 188 -3 0
-22 10 -43 23 -65 41 -281 147 -299 147 -3 0 -19 6 -36 14 -222 97 -533 142
-750 110z"/>
</g>
</svg>
